/* XPM */
static char * control_pause_blue_xpm[] = {
"16 16 104 2",
"  	c None",
". 	c #AEC6E3",
"+ 	c #C8D0DB",
"@ 	c #D3D5D7",
"# 	c #D2D4D6",
"$ 	c #C4CDD8",
"% 	c #AAC1DF",
"& 	c #A8C3E6",
"* 	c #D2D7DD",
"= 	c #E8ECF1",
"- 	c #F3F6FA",
"; 	c #FBFDFE",
"> 	c #F2F5F9",
", 	c #E5E9EE",
"' 	c #C7CDD4",
") 	c #9FBADD",
"! 	c #D4D8DE",
"~ 	c #F7F8FB",
"{ 	c #FFFFFF",
"] 	c #F6F9FC",
"^ 	c #EEF3FA",
"/ 	c #EDF3FA",
"( 	c #F4F8FC",
"_ 	c #F3F6F9",
": 	c #C4CAD1",
"< 	c #9CB7DA",
"[ 	c #EBF1F9",
"} 	c #E9F0F9",
"| 	c #E8EFF9",
"1 	c #E6EFF8",
"2 	c #E5EEF8",
"3 	c #BABFC7",
"4 	c #AEC5E2",
"5 	c #5485C3",
"6 	c #6998D6",
"7 	c #5283C1",
"8 	c #6697D5",
"9 	c #D8DFE7",
"0 	c #94ABC8",
"a 	c #C7CFDA",
"b 	c #5384C3",
"c 	c #6998D5",
"d 	c #E4EDF7",
"e 	c #5283C0",
"f 	c #ECF2FA",
"g 	c #F1F5FB",
"h 	c #EAEFF6",
"i 	c #A0A9B4",
"j 	c #D1D3D5",
"k 	c #6798D5",
"l 	c #E3ECF7",
"m 	c #5281C0",
"n 	c #6596D4",
"o 	c #F9FBFD",
"p 	c #A5A7A9",
"q 	c #D0D2D4",
"r 	c #E1EBF7",
"s 	c #5180BE",
"t 	c #6495D4",
"u 	c #F1F5FA",
"v 	c #A0A2A4",
"w 	c #C2CBD6",
"x 	c #EFF3F8",
"y 	c #F2F6FB",
"z 	c #6697D4",
"A 	c #E0EAF6",
"B 	c #DFE9F6",
"C 	c #5180BD",
"D 	c #DBE4EF",
"E 	c #949CA7",
"F 	c #A7BEDC",
"G 	c #E1E5EC",
"H 	c #FEFEFF",
"I 	c #DDE8F6",
"J 	c #6294D4",
"K 	c #FAFCFE",
"L 	c #BFC9D6",
"M 	c #8198B6",
"N 	c #BEC3CA",
"O 	c #EDF1F7",
"P 	c #DBE6F5",
"Q 	c #DCE4EF",
"R 	c #929AA3",
"S 	c #94B0D2",
"T 	c #B3BBC3",
"U 	c #E8EEF4",
"V 	c #EFF4FB",
"W 	c #DBE4EE",
"X 	c #919CA8",
"Y 	c #7994B7",
"Z 	c #8CA7CA",
"` 	c #A3ABB3",
" .	c #C8D1DC",
"..	c #E1E8F1",
"+.	c #D6E0ED",
"@.	c #B8C3D2",
"#.	c #8C949F",
"$.	c #7792B5",
"%.	c #839BB8",
"&.	c #8E97A2",
"*.	c #949698",
"=.	c #909295",
"-.	c #88919C",
";.	c #7991AE",
"                                ",
"          . + @ # $ %           ",
"      & * = - ; ; > , ' )       ",
"    & ! ~ { ] ^ / ( { _ : <     ",
"    * ~ { [ } | | 1 2 { _ 3     ",
"  4 = { [ 5 6 | 1 7 8 / { 9 0   ",
"  a - ( | b c 2 d e 8 f g h i   ",
"  j ; f | 7 k l l m n [ l o p   ",
"  q ; [ 2 7 8 l r s t [ r u v   ",
"  w x y l e z A B C t } ^ D E   ",
"  F G H r n n I I t J | K L M   ",
"    N O { [ [ [ P | | K Q R     ",
"    S T U H V r A / K W X Y     ",
"      Z `  ...y ^ +.@.#.$.      ",
"          %.&.*.=.-.;.          ",
"                                "};
