/* XPM */
static char * zoom_xpm[] = {
"16 16 74 1",
" 	c None",
".	c #CEA75E",
"+	c #CEA761",
"@	c #CFA864",
"#	c #CEA662",
"$	c #CCA15D",
"%	c #C89C57",
"&	c #CFA861",
"*	c #CEA65E",
"=	c #C79A57",
"-	c #C79757",
";	c #CDA45B",
">	c #C39150",
",	c #C39153",
"'	c #CDA65E",
")	c #CDA55E",
"!	c #C18E4F",
"~	c #BD894C",
"{	c #CEA660",
"]	c #BE894D",
"^	c #CFA762",
"/	c #BE8A4F",
"(	c #CDA561",
"_	c #BD864C",
":	c #C99F5B",
"<	c #FE7874",
"[	c #FC6F6D",
"}	c #FA6362",
"|	c #F75456",
"1	c #F44548",
"2	c #F1353A",
"3	c #EE262E",
"4	c #C69956",
"5	c #C69655",
"6	c #F8C8BF",
"7	c #F7C0B7",
"8	c #F6B6AE",
"9	c #F4ABA4",
"0	c #F3A09B",
"a	c #EC1A23",
"b	c #C49555",
"c	c #C18F4F",
"d	c #EA111C",
"e	c #C28F50",
"f	c #BE8A4D",
"g	c #C18C52",
"h	c #D6B479",
"i	c #E3CC99",
"j	c #DEC48D",
"k	c #BC834F",
"l	c #BC854A",
"m	c #BC864C",
"n	c #BC844B",
"o	c #B77E47",
"p	c #BB814C",
"q	c #DBBF87",
"r	c #E8D5A3",
"s	c #E9D7A5",
"t	c #DABB80",
"u	c #AB643D",
"v	c #C18E58",
"w	c #DFC58F",
"x	c #E7D3A0",
"y	c #E0C793",
"z	c #C99B61",
"A	c #874828",
"B	c #BC8451",
"C	c #D7B57D",
"D	c #D6B57F",
"E	c #C39156",
"F	c #AB6737",
"G	c #A55C33",
"H	c #B98048",
"I	c #AB6437",
"                ",
"   .+@#$%       ",
"  &*    =-      ",
" &;      >,     ",
"')        !~    ",
"{          ]    ",
"^          /    ",
"(          _    ",
":    <[}|123    ",
"45   [67890a    ",
" bc  }|123ad    ",
"  ef    ghijk   ",
"   lm_nopqrstu  ",
"         vwxyzA ",
"          BCDEF ",
"           GHI  "};
